<svg xmlns="http://www.w3.org/2000/svg" xmlns:xlink="http://www.w3.org/1999/xlink" width="500" zoomAndPan="magnify" viewBox="0 0 375 374.999991" height="500" preserveAspectRatio="xMidYMid meet" version="1.0"><defs><g/></defs><g fill="#222222" fill-opacity="1"><g transform="translate(58.043728, 272.624982)"><g><path d="M 209.703125 -171.765625 L 209.703125 0 L 167.859375 0 L 167.859375 -103.015625 L 129.4375 0 L 95.671875 0 L 57.015625 -103.265625 L 57.015625 0 L 15.171875 0 L 15.171875 -171.765625 L 64.59375 -171.765625 L 112.796875 -52.859375 L 160.515625 -171.765625 Z M 209.703125 -171.765625 "/></g></g></g><g fill="#6366f1" fill-opacity="1"><g transform="translate(265.547624, 272.624982)"><g><path d="M 25.9375 1.46875 C 21.695312 1.46875 18.109375 0 15.171875 -2.9375 C 12.234375 -5.875 10.765625 -9.460938 10.765625 -13.703125 C 10.765625 -17.941406 12.234375 -21.53125 15.171875 -24.46875 C 18.109375 -27.40625 21.695312 -28.875 25.9375 -28.875 C 30.007812 -28.875 33.472656 -27.40625 36.328125 -24.46875 C 39.191406 -21.53125 40.625 -17.941406 40.625 -13.703125 C 40.625 -9.460938 39.191406 -5.875 36.328125 -2.9375 C 33.472656 0 30.007812 1.46875 25.9375 1.46875 Z M 25.9375 1.46875 "/></g></g></g></svg>